<mxfile host="65bd71144e">
    <diagram id="D2a5Kx3bAHh7XBHMIRSJ" name="Page-1">
        <mxGraphModel dx="700" dy="782" grid="1" gridSize="10" guides="1" tooltips="1" connect="1" arrows="1" fold="1" page="1" pageScale="1" pageWidth="850" pageHeight="1100" math="0" shadow="0">
            <root>
                <mxCell id="0"/>
                <mxCell id="1" parent="0"/>
                <mxCell id="2" value="" style="whiteSpace=wrap;html=1;aspect=fixed;fillColor=#ffe6cc;strokeColor=#d79b00;" vertex="1" parent="1">
                    <mxGeometry x="260" y="170" width="370" height="370" as="geometry"/>
                </mxCell>
                <mxCell id="7" value="MY TODO" style="rounded=1;whiteSpace=wrap;html=1;fillColor=#e1d5e7;strokeColor=#9673a6;" vertex="1" parent="1">
                    <mxGeometry x="365" y="230" width="120" height="60" as="geometry"/>
                </mxCell>
                <mxCell id="8" value="TODO" style="rounded=0;whiteSpace=wrap;html=1;fillColor=#dae8fc;strokeColor=#6c8ebf;" vertex="1" parent="1">
                    <mxGeometry x="405" y="310" width="120" height="60" as="geometry"/>
                </mxCell>
                <mxCell id="9" value="" style="rounded=0;whiteSpace=wrap;html=1;fillColor=#f8cecc;strokeColor=#b85450;" vertex="1" parent="1">
                    <mxGeometry x="365" y="310" width="40" height="60" as="geometry"/>
                </mxCell>
                <mxCell id="10" value="" style="shape=datastore;whiteSpace=wrap;html=1;fillColor=#FF1900;" vertex="1" parent="1">
                    <mxGeometry x="375" y="325" width="20" height="30" as="geometry"/>
                </mxCell>
                <mxCell id="13" style="edgeStyle=none;html=1;exitX=0.5;exitY=0;exitDx=0;exitDy=0;" edge="1" parent="1" source="11" target="12">
                    <mxGeometry relative="1" as="geometry"/>
                </mxCell>
                <mxCell id="11" value="Add Todo" style="text;strokeColor=none;fillColor=none;html=1;fontSize=16;fontStyle=1;verticalAlign=middle;align=center;" vertex="1" parent="1">
                    <mxGeometry x="514.38" y="400" width="100" height="40" as="geometry"/>
                </mxCell>
                <mxCell id="12" value="" style="rounded=1;whiteSpace=wrap;html=1;fillColor=#e1d5e7;strokeColor=#9673a6;" vertex="1" parent="1">
                    <mxGeometry x="485" y="230" width="40" height="60" as="geometry"/>
                </mxCell>
                <mxCell id="14" style="edgeStyle=none;html=1;exitX=0.5;exitY=0;exitDx=0;exitDy=0;" edge="1" parent="1" source="15">
                    <mxGeometry relative="1" as="geometry">
                        <mxPoint x="385" y="350" as="targetPoint"/>
                    </mxGeometry>
                </mxCell>
                <mxCell id="15" value="Delete Todo" style="text;strokeColor=none;fillColor=none;html=1;fontSize=16;fontStyle=1;verticalAlign=middle;align=center;" vertex="1" parent="1">
                    <mxGeometry x="290" y="440" width="100" height="35" as="geometry"/>
                </mxCell>
                <mxCell id="16" value="" style="shape=cross;whiteSpace=wrap;html=1;size=0.12727272727272726;" vertex="1" parent="1">
                    <mxGeometry x="495.63" y="250" width="18.75" height="20" as="geometry"/>
                </mxCell>
                <mxCell id="20" value="&lt;!DOCTYPE html&gt;&#13;&#10;&lt;html lang=&quot;en&quot;&gt;&#13;&#10;  &lt;head&gt;&#13;&#10;    &lt;meta charset=&quot;UTF-8&quot; /&gt;&#13;&#10;    &lt;meta http-equiv=&quot;X-UA-Compatible&quot; content=&quot;IE=edge&quot; /&gt;&#13;&#10;    &lt;meta name=&quot;viewport&quot; content=&quot;width=device-width, initial-scale=1.0&quot; /&gt;&#13;&#10;    &lt;link&#13;&#10;      rel=&quot;stylesheet&quot;&#13;&#10;      href=&quot;/Cbc14/Week4/Homework4/Todo project/todolist.css&quot;&#13;&#10;    /&gt;&#13;&#10;    &lt;title&gt;Document&lt;/title&gt;&#13;&#10;  &lt;/head&gt;&#13;&#10;  &lt;body&gt;&#13;&#10;    &lt;script src=&quot;/Cbc14/Week4/Homework4/Todo project/todolist.js&quot;&gt;&lt;/script&gt;&#13;&#10;  &lt;/body&gt;&#13;&#10;&lt;/html&gt;" style="text;whiteSpace=wrap;html=1;fontSize=16;" vertex="1" parent="1">
                    <mxGeometry width="30" height="240" as="geometry"/>
                </mxCell>
                <mxCell id="21" value="&lt;!DOCTYPE html&gt;&#13;&#10;&lt;html lang=&quot;en&quot;&gt;&#13;&#10;  &lt;head&gt;&#13;&#10;    &lt;meta charset=&quot;UTF-8&quot; /&gt;&#13;&#10;    &lt;meta http-equiv=&quot;X-UA-Compatible&quot; content=&quot;IE=edge&quot; /&gt;&#13;&#10;    &lt;meta name=&quot;viewport&quot; content=&quot;width=device-width, initial-scale=1.0&quot; /&gt;&#13;&#10;    &lt;link&#13;&#10;      rel=&quot;stylesheet&quot;&#13;&#10;      href=&quot;/Cbc14/Week4/Homework4/Todo project/todolist.css&quot;&#13;&#10;    /&gt;&#13;&#10;    &lt;title&gt;Document&lt;/title&gt;&#13;&#10;  &lt;/head&gt;&#13;&#10;  &lt;body&gt;&#13;&#10;    &lt;script src=&quot;/Cbc14/Week4/Homework4/Todo project/todolist.js&quot;&gt;&lt;/script&gt;&#13;&#10;  &lt;/body&gt;&#13;&#10;&lt;/html&gt;" style="text;whiteSpace=wrap;html=1;fontSize=16;" vertex="1" parent="1">
                    <mxGeometry width="30" height="240" as="geometry"/>
                </mxCell>
            </root>
        </mxGraphModel>
    </diagram>
</mxfile>